<?xml version="1.0" encoding="UTF-8" standalone="no"?>
<!DOCTYPE svg PUBLIC "-//W3C//DTD SVG 1.1//EN" "http://www.w3.org/Graphics/SVG/1.1/DTD/svg11.dtd">
<svg width="100%" height="100%" viewBox="0 0 320 321" version="1.1" xmlns="http://www.w3.org/2000/svg" xmlns:xlink="http://www.w3.org/1999/xlink" xml:space="preserve" xmlns:serif="http://www.serif.com/" style="fill-rule:evenodd;clip-rule:evenodd;stroke-linecap:round;stroke-linejoin:round;stroke-miterlimit:1.5;">
    <g transform="matrix(1,0,0,1,-1120,-383)">
        <g id="PsychoPy4-Emblem" serif:id="PsychoPy4 Emblem" transform="matrix(1.44796,0,0,1.42222,1030.23,332.575)">
            <rect x="62" y="36" width="221" height="225" style="fill:none;"/>
            <g transform="matrix(0.690625,0,0,0.703125,-266.721,-215.883)">
                <path d="M530,433C551,452 487.585,487.487 511,507C535,527 595.712,371.708 627,384C655,395 491.312,562.533 520,582C548,601 655.22,371.748 685,390C716,409 526.219,602.958 553,624C581,646 704,395 730,416C757.592,438.286 567.851,624.335 597,649C623,671 737.094,437.883 762,458C788,479 629.021,632.681 658,652C682,668 747,513 771,535C788.272,550.833 729.268,590.46 749,608" style="fill:none;stroke:var(--text);stroke-width:8px;"/>
            </g>
        </g>
    </g>
</svg>
