<?xml version="1.0" encoding="UTF-8" standalone="no"?>
<!DOCTYPE svg PUBLIC "-//W3C//DTD SVG 1.1//EN" "http://www.w3.org/Graphics/SVG/1.1/DTD/svg11.dtd">
<svg width="100%" height="100%" viewBox="0 0 33 32" version="1.1" xmlns="http://www.w3.org/2000/svg" xmlns:xlink="http://www.w3.org/1999/xlink" xml:space="preserve" xmlns:serif="http://www.serif.com/" style="fill-rule:evenodd;clip-rule:evenodd;stroke-linejoin:round;stroke-miterlimit:2;">
    <g transform="matrix(1,0,0,1,-85,-1)">
        <g id="light-btn-save" serif:id="light/btn-save" transform="matrix(0.451519,0,0,0.451519,85.093,1)">
            <rect x="0" y="0" width="70.872" height="70.866" style="fill:none;"/>
            <g transform="matrix(1,0,0,1,-222.787,0)">
                <path d="M283.081,15.849C284.711,17.534 285.641,19.861 285.641,22.252L285.641,49.842C285.641,56.097 280.811,61.184 274.871,61.184L244.021,61.184C238.081,61.184 233.251,56.097 233.251,49.842L233.251,17.365C233.251,11.11 238.081,6.024 244.021,6.024L270.071,6.024C272.271,6.024 274.431,6.95 276.001,8.572L283.081,15.849ZM279.641,49.842L279.641,22.252C279.641,21.546 279.361,20.862 278.891,20.366L271.801,13.079C271.341,12.605 270.711,12.342 270.071,12.342L244.021,12.342C241.391,12.342 239.251,14.585 239.251,17.365L239.251,49.842C239.251,52.622 241.391,54.865 244.021,54.865L274.871,54.865C277.501,54.865 279.641,52.622 279.641,49.842ZM270.011,41.364C270.011,44.934 267.131,47.814 263.561,47.814C260.011,47.814 257.121,44.934 257.121,41.364C257.121,37.814 260.011,34.924 263.561,34.924C267.131,34.924 270.011,37.814 270.011,41.364ZM267.631,15.714C268.941,15.714 270.011,16.784 270.011,18.094L270.011,24.544C270.011,25.864 268.941,26.934 267.631,26.934L246.511,26.934C245.191,26.934 244.121,25.864 244.121,24.544L244.121,18.094C244.121,16.784 245.191,15.714 246.511,15.714L267.631,15.714Z" style="fill:var(--outline);"/>
            </g>
        </g>
    </g>
</svg>
