<?xml version="1.0" encoding="UTF-8" standalone="no"?>
<!DOCTYPE svg PUBLIC "-//W3C//DTD SVG 1.1//EN" "http://www.w3.org/Graphics/SVG/1.1/DTD/svg11.dtd">
<svg width="100%" height="100%" viewBox="0 0 385 384" version="1.1" xmlns="http://www.w3.org/2000/svg" xmlns:xlink="http://www.w3.org/1999/xlink" xml:space="preserve" xmlns:serif="http://www.serif.com/" style="fill-rule:evenodd;clip-rule:evenodd;stroke-linecap:round;stroke-linejoin:round;stroke-miterlimit:1.5;">
    <g transform="matrix(1,0,0,1,-2976,-570)">
        <g id="Psychopy-Coder-Favicon" serif:id="Psychopy Coder Favicon" transform="matrix(1.73756,0,0,1.70667,2868.67,508.56)">
            <rect x="62" y="36" width="221" height="225" style="fill:none;"/>
            <g transform="matrix(0.682464,0,0,0.694817,-268.923,-218.609)">
                <path d="M530,433C551,452 487.585,487.487 511,507C535,527 595.712,371.708 627,384C655,395 491.312,562.533 520,582C548,601 655.22,371.748 685,390C716,409 526.219,602.958 553,624C581,646 704,395 730,416C757.592,438.286 567.851,624.335 597,649C623,671 737.094,437.883 762,458C788,479 629.021,632.681 658,652C682,668 747,513 771,535C788.272,550.833 729.268,590.46 749,608" style="fill:none;stroke:var(--text);stroke-width:13.49px;"/>
            </g>
            <g id="Coder-Icon" serif:id="Coder Icon" transform="matrix(0.694198,0,0,0.706763,84.9857,68.5898)">
                <g id="Face" transform="matrix(1,0,0,1,250.632,191.897)">
                    <path d="M0,-11.752L0,49.492C0,55.891 -5.187,61.078 -11.586,61.078L-101.468,61.078C-107.867,61.078 -113.054,55.891 -113.054,49.492L-113.054,-61.245C-113.054,-67.643 -107.867,-72.83 -101.468,-72.83L-58.15,-72.83C-54.955,-72.83 -51.902,-71.511 -49.712,-69.184L-3.148,-19.691C-1.126,-17.542 0,-14.703 0,-11.752" style="fill:none;fill-rule:nonzero;"/>
                    <clipPath id="_clip1">
                        <path d="M0,-11.752L0,49.492C0,55.891 -5.187,61.078 -11.586,61.078L-101.468,61.078C-107.867,61.078 -113.054,55.891 -113.054,49.492L-113.054,-61.245C-113.054,-67.643 -107.867,-72.83 -101.468,-72.83L-58.15,-72.83C-54.955,-72.83 -51.902,-71.511 -49.712,-69.184L-3.148,-19.691C-1.126,-17.542 0,-14.703 0,-11.752" clip-rule="nonzero"/>
                    </clipPath>
                    <g clip-path="url(#_clip1)">
                        <g transform="matrix(0.755036,0.772545,-0.792391,0.774433,927.591,-1369.15)">
                            <circle cx="273.5" cy="1501.5" r="84.5" style="fill:url(#_Linear2);"/>
                        </g>
                    </g>
                </g>
                <g id="Lines" transform="matrix(1,0,0,1,244.342,137.938)">
                    <path d="M0,96.803C0,104.861 -6.554,111.414 -14.583,111.414L-84.973,111.414C-93.03,111.414 -99.556,104.861 -99.556,96.803L-99.556,1.617C-99.556,-6.413 -93.03,-12.966 -84.973,-12.966L-61.935,-12.966L-61.85,16.001C-61.85,32.91 -48.09,46.671 -31.18,46.671L0,46.671L0,96.803ZM-43.096,-29.847L-83.185,-29.847C-100.095,-29.847 -113.883,-16.087 -113.883,0.822L-113.883,95.98C-113.883,112.89 -100.095,126.65 -83.185,126.65L-12.796,126.65C4.114,126.65 17.874,112.89 17.874,95.98L17.874,31.123L-43.096,-29.847Z" style="fill:none;fill-rule:nonzero;"/>
                    <clipPath id="_clip3">
                        <path d="M0,96.803C0,104.861 -6.554,111.414 -14.583,111.414L-84.973,111.414C-93.03,111.414 -99.556,104.861 -99.556,96.803L-99.556,1.617C-99.556,-6.413 -93.03,-12.966 -84.973,-12.966L-61.935,-12.966L-61.85,16.001C-61.85,32.91 -48.09,46.671 -31.18,46.671L0,46.671L0,96.803ZM-43.096,-29.847L-83.185,-29.847C-100.095,-29.847 -113.883,-16.087 -113.883,0.822L-113.883,95.98C-113.883,112.89 -100.095,126.65 -83.185,126.65L-12.796,126.65C4.114,126.65 17.874,112.89 17.874,95.98L17.874,31.123L-43.096,-29.847Z" clip-rule="nonzero"/>
                    </clipPath>
                    <g clip-path="url(#_clip3)">
                        <g transform="matrix(0.80774,0.80774,-0.80774,0.80774,941.668,-1385.66)">
                            <circle cx="273.5" cy="1501.5" r="84.5" style="fill:var(--outline);"/>
                        </g>
                    </g>
                </g>
                <g transform="matrix(1,0,0,1,207.086,206.032)">
                    <path d="M0,13.231L-47.629,31.312L-47.629,15.562L-19.404,6.49L-47.629,-1.952L-47.629,-18.081L0,-0.818L0,13.231Z" style="fill:rgb(242,84,91);fill-rule:nonzero;"/>
                </g>
            </g>
        </g>
    </g>
    <defs>
        <linearGradient id="_Linear2" x1="0" y1="0" x2="1" y2="0" gradientUnits="userSpaceOnUse" gradientTransform="matrix(169,0,0,169,189,1501.5)"><stop offset="0" style="stop-color:white;stop-opacity:1"/><stop offset="0.33" style="stop-color:white;stop-opacity:1"/><stop offset="1" style="stop-color:rgb(226,226,226);stop-opacity:1"/></linearGradient>
    </defs>
</svg>
