<?xml version="1.0" encoding="UTF-8" standalone="no"?>
<!DOCTYPE svg PUBLIC "-//W3C//DTD SVG 1.1//EN" "http://www.w3.org/Graphics/SVG/1.1/DTD/svg11.dtd">
<svg width="100%" height="100%" viewBox="0 0 48 48" version="1.1" xmlns="http://www.w3.org/2000/svg" xmlns:xlink="http://www.w3.org/1999/xlink" xml:space="preserve" xmlns:serif="http://www.serif.com/" style="fill-rule:evenodd;clip-rule:evenodd;stroke-linejoin:round;stroke-miterlimit:2;">
    <rect id="light-btn-hamburger" serif:id="light/btn-hamburger" x="0" y="0" width="48" height="48" style="fill:none;"/>
    <g id="light-btn-hamburger1" serif:id="light/btn-hamburger">
        <g transform="matrix(0.727273,0,0,0.875,6.54545,9.25)">
            <path d="M41.188,2C43.845,2 46,3.791 46,6L46,6C46,8.209 43.845,10 41.188,10L6.812,10C4.155,10 2,8.209 2,6L2,6C2,3.791 4.155,2 6.812,2L41.188,2Z" style="fill:var(--outline);"/>
        </g>
        <g transform="matrix(0.727273,0,0,0.875,6.54545,18.75)">
            <path d="M41.188,2C43.845,2 46,3.791 46,6L46,6C46,8.209 43.845,10 41.188,10L6.812,10C4.155,10 2,8.209 2,6L2,6C2,3.791 4.155,2 6.812,2L41.188,2Z" style="fill:var(--outline);"/>
        </g>
        <g transform="matrix(0.727273,0,0,0.875,6.54545,29.25)">
            <path d="M41.188,2C43.845,2 46,3.791 46,6L46,6C46,8.209 43.845,10 41.188,10L6.812,10C4.155,10 2,8.209 2,6L2,6C2,3.791 4.155,2 6.812,2L41.188,2Z" style="fill:var(--outline);"/>
        </g>
    </g>
</svg>
