<?xml version="1.0" encoding="UTF-8" standalone="no"?>
<!DOCTYPE svg PUBLIC "-//W3C//DTD SVG 1.1//EN" "http://www.w3.org/Graphics/SVG/1.1/DTD/svg11.dtd">
<svg width="100%" height="100%" viewBox="0 0 32 32" version="1.1" xmlns="http://www.w3.org/2000/svg" xmlns:xlink="http://www.w3.org/1999/xlink" xml:space="preserve" xmlns:serif="http://www.serif.com/" style="fill-rule:evenodd;clip-rule:evenodd;stroke-linejoin:round;stroke-miterlimit:2;">
    <g transform="matrix(1,0,0,1,-637,0)">
        <g id="btn-plugin" transform="matrix(0.451519,0,0,0.451519,637,0.0013094)">
            <rect x="0" y="0" width="70.872" height="70.866" style="fill:none;"/>
            <g transform="matrix(2.18461,0,0,2.18461,-1390.69,0.901118)">
                <path d="M646,24.458C646,24.31 645.92,24.173 645.792,24.099C645.663,24.025 645.505,24.025 645.377,24.099C644.628,24.516 643.766,24.751 642.85,24.751C639.952,24.751 637.6,22.399 637.6,19.501C637.6,16.604 639.952,14.251 642.85,14.251C643.766,14.251 644.628,14.487 645.379,14.9C645.506,14.974 645.662,14.973 645.789,14.9C645.917,14.827 645.995,14.691 645.995,14.544C646,13.671 646,12.202 646,10.995C646,10.467 646.21,9.959 646.584,9.585C646.958,9.211 647.465,9.001 647.994,9.001L651.543,9.001C651.691,9.001 651.828,8.922 651.902,8.793C651.976,8.665 651.976,8.506 651.903,8.378C651.485,7.63 651.25,6.768 651.25,5.851C651.25,2.954 653.602,0.601 656.5,0.601C659.398,0.601 661.75,2.954 661.75,5.851C661.75,6.768 661.515,7.63 661.101,8.38C661.028,8.507 661.028,8.664 661.101,8.791C661.175,8.918 661.31,8.996 661.457,8.996C662.33,9.001 663.799,9.001 665.006,9.001C665.535,9.001 666.042,9.211 666.416,9.585C666.79,9.959 667,10.467 667,10.995L667,14.544C667,14.693 666.92,14.83 666.792,14.904C666.663,14.978 666.505,14.978 666.377,14.904C665.628,14.487 664.766,14.251 663.85,14.251C660.952,14.251 658.6,16.604 658.6,19.501C658.6,22.399 660.952,24.751 663.85,24.751C664.766,24.751 665.628,24.516 666.379,24.102C666.506,24.029 666.662,24.029 666.789,24.103C666.917,24.176 666.995,24.312 666.995,24.458C667,25.331 667,26.801 667,28.007C667,28.536 666.79,29.043 666.416,29.417C666.042,29.791 665.535,30.001 665.006,30.001C660.997,30.001 652.003,30.001 647.994,30.001C647.465,30.001 646.958,29.791 646.584,29.417C646.21,29.043 646,28.536 646,28.007C646,26.801 646,25.331 646,24.458Z" style="fill:var(--outline);"/>
            </g>
        </g>
    </g>
</svg>
