<?xml version="1.0" encoding="UTF-8" standalone="no"?>
<!DOCTYPE svg PUBLIC "-//W3C//DTD SVG 1.1//EN" "http://www.w3.org/Graphics/SVG/1.1/DTD/svg11.dtd">
<svg width="100%" height="100%" viewBox="0 0 33 32" version="1.1" xmlns="http://www.w3.org/2000/svg" xmlns:xlink="http://www.w3.org/1999/xlink" xml:space="preserve" xmlns:serif="http://www.serif.com/" style="fill-rule:evenodd;clip-rule:evenodd;stroke-linejoin:round;stroke-miterlimit:2;">
    <g transform="matrix(1,0,0,1,-170,-1)">
        <g id="light-btn-undo" serif:id="light/btn-undo" transform="matrix(0.451519,0,0,0.451519,170.186,1)">
            <rect x="0" y="0" width="70.872" height="70.866" style="fill:none;"/>
            <g transform="matrix(1.00166,0,0,1.00166,-401.537,-164.096)">
                <path d="M433.524,188.466L445.395,195.623L413.963,202.602L407.318,172.666L418.675,179.513C421.457,177.404 424.558,175.779 427.826,174.751C432.684,173.212 437.817,172.92 442.607,173.916C452.292,175.786 460.317,182.754 463.443,191.318C466.752,199.84 465.185,209.553 460.03,216.187C457.534,219.56 454.129,222.09 450.496,223.755C446.811,225.362 442.813,225.969 438.997,225.649C442.818,225.26 446.444,223.948 449.471,221.894C452.451,219.779 454.929,217.058 456.442,213.908C459.625,207.689 459.104,200.212 455.757,194.948C454.981,193.593 453.917,192.441 452.87,191.354L452.008,190.608L451.584,190.237L451.12,189.912L450.212,189.259L449.244,188.706C446.685,187.219 443.797,186.588 441.04,186.568C438.306,186.547 435.734,187.254 433.524,188.466Z" style="fill:var(--outline);"/>
            </g>
        </g>
    </g>
</svg>
