<?xml version="1.0" encoding="UTF-8" standalone="no"?>
<!DOCTYPE svg PUBLIC "-//W3C//DTD SVG 1.1//EN" "http://www.w3.org/Graphics/SVG/1.1/DTD/svg11.dtd">
<svg width="100%" height="100%" viewBox="0 0 32 32" version="1.1" xmlns="http://www.w3.org/2000/svg" xmlns:xlink="http://www.w3.org/1999/xlink" xml:space="preserve" xmlns:serif="http://www.serif.com/" style="fill-rule:evenodd;clip-rule:evenodd;stroke-linecap:round;stroke-linejoin:round;stroke-miterlimit:1.5;">
    <g transform="matrix(1,0,0,1,-78,0)">
        <g id="light-param-update-constant" serif:id="light/param-update-constant" transform="matrix(2.76476e-17,0.451519,-0.451556,2.76498e-17,110,0)">
            <rect x="0" y="0" width="70.872" height="70.866" style="fill:none;"/>
            <g transform="matrix(-1.26623,-1.55056e-16,1.55069e-16,-1.26613,18.7324,30.5553)">
                <path d="M0,10.79L-10.653,21.443C-11.724,22.514 -13.453,22.514 -14.524,21.443L-25.164,10.79C-26.894,9.073 -25.675,6.135 -23.235,6.135L-17.822,6.135L-17.822,-21.213C-17.822,-24.1 -15.482,-26.453 -12.582,-26.453C-9.682,-26.453 -7.343,-24.1 -7.343,-21.213L-7.343,6.135L-1.929,6.135C0.51,6.135 1.717,9.073 0,10.79" style="fill:var(--outline);fill-rule:nonzero;"/>
            </g>
            <g transform="matrix(7.17842e-17,-1.17223,1.17233,7.17783e-17,-474.837,454.981)">
                <path d="M335,412.595L335,457.936" style="fill:none;stroke:var(--outline);stroke-width:10.75px;"/>
            </g>
        </g>
    </g>
</svg>
