<?xml version="1.0" encoding="UTF-8" standalone="no"?>
<!DOCTYPE svg PUBLIC "-//W3C//DTD SVG 1.1//EN" "http://www.w3.org/Graphics/SVG/1.1/DTD/svg11.dtd">
<svg width="100%" height="100%" viewBox="0 0 385 384" version="1.1" xmlns="http://www.w3.org/2000/svg" xmlns:xlink="http://www.w3.org/1999/xlink" xml:space="preserve" xmlns:serif="http://www.serif.com/" style="fill-rule:evenodd;clip-rule:evenodd;stroke-linecap:round;stroke-linejoin:round;stroke-miterlimit:1.5;">
    <g transform="matrix(1,0,0,1,-2976,-1115)">
        <g id="Psychopy-Runner-Favicon" serif:id="Psychopy Runner Favicon" transform="matrix(1.73756,0,0,1.70667,2868.67,1053.56)">
            <rect x="62" y="36" width="221" height="225" style="fill:none;"/>
            <g transform="matrix(0.682464,0,0,0.694817,-268.923,-218.609)">
                <path d="M530,433C551,452 487.585,487.487 511,507C535,527 595.712,371.708 627,384C655,395 491.312,562.533 520,582C548,601 655.22,371.748 685,390C716,409 526.219,602.958 553,624C581,646 704,395 730,416C757.592,438.286 567.851,624.335 597,649C623,671 737.094,437.883 762,458C788,479 629.021,632.681 658,652C682,668 747,513 771,535C788.272,550.833 729.268,590.46 749,608" style="fill:none;stroke:rgb(36,36,39);stroke-width:13.49px;"/>
            </g>
            <g id="Runner" transform="matrix(0.694198,0,0,0.706763,87.3533,64.8403)">
                <g transform="matrix(1,0,0,1,234.474,172.492)">
                    <path d="M-46.474,-64.899C-89.809,-64.899 -124.955,-29.654 -124.955,13.837C-124.955,57.328 -89.809,92.573 -46.474,92.573C-3.138,92.573 31.981,57.328 31.981,13.837C31.981,-29.654 -3.138,-64.899 -46.474,-64.899" style="fill:none;fill-rule:nonzero;"/>
                    <clipPath id="_clip1">
                        <path d="M-46.474,-64.899C-89.809,-64.899 -124.955,-29.654 -124.955,13.837C-124.955,57.328 -89.809,92.573 -46.474,92.573C-3.138,92.573 31.981,57.328 31.981,13.837C31.981,-29.654 -3.138,-64.899 -46.474,-64.899" clip-rule="nonzero"/>
                    </clipPath>
                    <g clip-path="url(#_clip1)">
                        <g transform="matrix(0.80774,0.80774,-0.80774,0.80774,943.186,-1420.22)">
                            <circle cx="273.5" cy="1501.5" r="84.5" style="fill:url(#_Linear2);"/>
                        </g>
                    </g>
                </g>
                <g transform="matrix(0.881099,0,0,0.881099,227.309,172.028)">
                    <path d="M0,27.674L-58.458,63.083C-67.374,68.483 -78.767,62.064 -78.767,51.64L-78.767,-19.177C-78.767,-29.601 -67.374,-36.021 -58.458,-30.62L0,4.788C8.596,9.995 8.596,22.467 0,27.674" style="fill:none;fill-rule:nonzero;"/>
                    <clipPath id="_clip3">
                        <path d="M0,27.674L-58.458,63.083C-67.374,68.483 -78.767,62.064 -78.767,51.64L-78.767,-19.177C-78.767,-29.601 -67.374,-36.021 -58.458,-30.62L0,4.788C8.596,9.995 8.596,22.467 0,27.674" clip-rule="nonzero"/>
                    </clipPath>
                    <g clip-path="url(#_clip3)">
                        <g transform="matrix(0,1,1,0,-39.7073,-49.0331)">
                            <path d="M62.87,-62.87C28.023,-62.87 -0.226,-34.722 -0.226,-0C-0.226,34.723 28.023,62.87 62.87,62.87C97.717,62.87 125.966,34.723 125.966,-0C125.966,-34.722 97.717,-62.87 62.87,-62.87" style="fill:url(#_Linear4);fill-rule:nonzero;"/>
                        </g>
                    </g>
                </g>
            </g>
        </g>
    </g>
    <defs>
        <linearGradient id="_Linear2" x1="0" y1="0" x2="1" y2="0" gradientUnits="userSpaceOnUse" gradientTransform="matrix(169,0,0,169,189,1501.5)"><stop offset="0" style="stop-color:rgb(118,118,126);stop-opacity:1"/><stop offset="1" style="stop-color:rgb(102,102,110);stop-opacity:1"/></linearGradient>
        <linearGradient id="_Linear4" x1="0" y1="0" x2="1" y2="0" gradientUnits="userSpaceOnUse" gradientTransform="matrix(126.192,0,0,125.74,-0.226,0)"><stop offset="0" style="stop-color:rgb(124,220,132);stop-opacity:1"/><stop offset="1" style="stop-color:rgb(108,204,116);stop-opacity:1"/></linearGradient>
    </defs>
</svg>
