<?xml version="1.0" encoding="UTF-8" standalone="no"?>
<!DOCTYPE svg PUBLIC "-//W3C//DTD SVG 1.1//EN" "http://www.w3.org/Graphics/SVG/1.1/DTD/svg11.dtd">
<svg width="100%" height="100%" viewBox="0 0 32 32" version="1.1" xmlns="http://www.w3.org/2000/svg" xmlns:xlink="http://www.w3.org/1999/xlink" xml:space="preserve" xmlns:serif="http://www.serif.com/" style="fill-rule:evenodd;clip-rule:evenodd;stroke-linejoin:round;stroke-miterlimit:2;">
    <g transform="matrix(1,0,0,1,0,-1)">
        <g id="light-btn-new" serif:id="light/btn-new" transform="matrix(0.451519,0,0,0.451519,0,1)">
            <rect x="0" y="0" width="70.872" height="70.866" style="fill:none;"/>
            <g transform="matrix(1,0,0,1,53.6602,18.0486)">
                <path d="M0,34.77C0,37.6 -2.31,39.91 -5.14,39.91L-29.95,39.91C-32.79,39.91 -35.1,37.6 -35.1,34.77L-35.1,1.22C-35.1,-1.62 -32.79,-3.93 -29.95,-3.93L-21.84,-3.93L-21.8,6.29C-21.8,12.25 -16.95,17.09 -10.99,17.09L0,17.09L0,34.77ZM-15.97,-10.2L-30.1,-10.2C-36.06,-10.2 -40.92,-5.35 -40.92,0.61L-40.92,34.16C-40.92,40.12 -36.06,44.97 -30.1,44.97L-5.29,44.97C0.67,44.97 5.52,40.12 5.52,34.16L5.52,11.29L-15.97,-10.2Z" style="fill:rgb(102,102,110);fill-rule:nonzero;"/>
            </g>
        </g>
    </g>
</svg>
