<?xml version="1.0" encoding="UTF-8" standalone="no"?>
<!DOCTYPE svg PUBLIC "-//W3C//DTD SVG 1.1//EN" "http://www.w3.org/Graphics/SVG/1.1/DTD/svg11.dtd">
<svg width="100%" height="100%" viewBox="0 0 32 32" version="1.1" xmlns="http://www.w3.org/2000/svg" xmlns:xlink="http://www.w3.org/1999/xlink" xml:space="preserve" xmlns:serif="http://www.serif.com/" style="fill-rule:evenodd;clip-rule:evenodd;stroke-linecap:round;stroke-linejoin:round;stroke-miterlimit:1.5;">
    <g transform="matrix(1,0,0,1,-72,0)">
        <g id="light-btn-delete" serif:id="light/btn-delete" transform="matrix(0.451519,0,0,0.451519,72,0)">
            <rect x="0" y="0" width="70.872" height="70.866" style="fill:none;"/>
            <g transform="matrix(2.21475,0,0,2.21475,-159.462,0)">
                <path d="M97,10C97,10 96.486,19.771 96.195,25.299C96.086,27.374 94.372,29 92.294,29L83.706,29C81.628,29 79.914,27.374 79.805,25.299C79.514,19.771 79,10 79,10" style="fill:none;stroke:rgb(242,84,91);stroke-width:4px;"/>
            </g>
            <g transform="matrix(2.21475,0,0,2.21475,-158.908,1.10737)">
                <path d="M82,8L82,5.707C82,4.212 83.212,3 84.707,3C86.542,3 88.958,3 90.793,3C92.288,3 93.5,4.212 93.5,5.707C93.5,6.885 93.5,8 93.5,8" style="fill:none;stroke:rgb(242,84,91);stroke-width:3px;"/>
            </g>
            <g transform="matrix(2.21475,0,0,2.21475,-159.462,3.32212)">
                <path d="M75,8.5C84,7.186 92,7.187 101,8.5" style="fill:none;stroke:rgb(242,84,91);stroke-width:4px;"/>
            </g>
            <g transform="matrix(2.21475,0,0,2.21475,-159.462,0)">
                <path d="M85,14L85.5,23.95" style="fill:none;stroke:rgb(242,84,91);stroke-width:3px;"/>
            </g>
            <g transform="matrix(2.21475,0,0,2.21475,-146.173,0)">
                <path d="M85,14L84.5,23.95" style="fill:none;stroke:rgb(242,84,91);stroke-width:3px;"/>
            </g>
        </g>
    </g>
</svg>
