<?xml version="1.0" encoding="UTF-8" standalone="no"?>
<!DOCTYPE svg PUBLIC "-//W3C//DTD SVG 1.1//EN" "http://www.w3.org/Graphics/SVG/1.1/DTD/svg11.dtd">
<svg width="100%" height="100%" viewBox="0 0 33 32" version="1.1" xmlns="http://www.w3.org/2000/svg" xmlns:xlink="http://www.w3.org/1999/xlink" xml:space="preserve" xmlns:serif="http://www.serif.com/" style="fill-rule:evenodd;clip-rule:evenodd;stroke-linejoin:round;stroke-miterlimit:2;">
    <g transform="matrix(1,0,0,1,-298,-1)">
        <g id="light-btn-settings" serif:id="light/btn-settings" transform="matrix(0.451519,0,0,0.451519,298.519,1)">
            <rect x="0" y="0" width="70.872" height="70.866" style="fill:none;"/>
            <g transform="matrix(0.848897,0,0,0.848897,42.4291,28.5406)">
                <path d="M0,16.227C-2.111,18.332 -5.017,19.636 -8.235,19.636C-11.452,19.636 -14.365,18.332 -16.476,16.227C-18.581,14.116 -19.884,11.204 -19.884,7.986C-19.884,4.769 -18.581,1.862 -16.476,-0.249C-14.365,-2.354 -11.452,-3.657 -8.235,-3.657C-5.017,-3.657 -2.111,-2.354 0,-0.249C2.105,1.862 3.409,4.769 3.409,7.986C3.409,11.204 2.105,14.116 0,16.227M16.377,7.984C16.377,4.366 18.8,1.303 22.116,0.34C22.789,0.145 23.218,-0.527 23.022,-1.199C22.366,-3.449 21.469,-5.6 20.362,-7.62C20.024,-8.236 19.242,-8.406 18.628,-8.065C17.484,-7.429 16.17,-7.066 14.777,-7.066C12.577,-7.066 10.587,-7.956 9.147,-9.396C7.707,-10.836 6.817,-12.826 6.817,-15.026C6.817,-16.419 7.18,-17.732 7.816,-18.877C8.157,-19.491 7.987,-20.273 7.371,-20.611C5.351,-21.717 3.201,-22.614 0.95,-23.271C0.278,-23.466 -0.394,-23.037 -0.588,-22.365C-1.55,-19.048 -4.605,-16.626 -8.233,-16.626C-11.86,-16.626 -14.916,-19.049 -15.877,-22.365C-16.072,-23.037 -16.744,-23.467 -17.416,-23.271C-19.671,-22.614 -21.822,-21.712 -23.842,-20.604C-24.459,-20.265 -24.627,-19.481 -24.284,-18.867C-23.649,-17.728 -23.293,-16.417 -23.293,-15.026C-23.293,-12.826 -24.183,-10.836 -25.623,-9.396C-27.063,-7.956 -29.053,-7.066 -31.243,-7.066C-32.644,-7.066 -33.959,-7.429 -35.104,-8.065C-35.718,-8.406 -36.5,-8.236 -36.838,-7.62C-37.945,-5.6 -38.841,-3.449 -39.498,-1.199C-39.694,-0.527 -39.264,0.145 -38.592,0.34C-35.276,1.303 -32.853,4.366 -32.853,7.984C-32.853,11.612 -35.275,14.667 -38.592,15.628C-39.264,15.823 -39.693,16.495 -39.498,17.167C-38.841,19.418 -37.945,21.568 -36.838,23.588C-36.5,24.204 -35.718,24.374 -35.104,24.033C-33.959,23.397 -32.644,23.034 -31.243,23.034C-29.043,23.034 -27.053,23.934 -25.623,25.374C-24.183,26.814 -23.293,28.804 -23.293,30.994C-23.293,32.392 -23.649,33.705 -24.284,34.844C-24.636,35.477 -24.434,36.259 -23.798,36.606C-21.503,37.861 -19.042,38.847 -16.452,39.519C-15.776,39.694 -15.119,39.248 -14.944,38.573C-14.056,35.14 -10.944,32.604 -7.233,32.604C-3.69,32.604 -0.695,34.91 0.344,38.11C0.558,38.769 1.243,39.167 1.901,38.953C3.806,38.335 5.633,37.54 7.365,36.592C7.983,36.253 8.153,35.468 7.809,34.853C7.169,33.708 6.807,32.394 6.807,30.994C6.807,28.804 7.697,26.804 9.137,25.364C10.587,23.924 12.567,23.034 14.767,23.034C16.167,23.034 17.483,23.397 18.628,24.033C19.243,24.374 20.024,24.204 20.362,23.588C21.469,21.568 22.366,19.418 23.022,17.167C23.218,16.495 22.788,15.823 22.116,15.628C18.8,14.667 16.377,11.612 16.377,7.984" style="fill:rgb(102,102,110);fill-rule:nonzero;"/>
            </g>
        </g>
    </g>
</svg>
