<?xml version="1.0" encoding="UTF-8" standalone="no"?>
<!DOCTYPE svg PUBLIC "-//W3C//DTD SVG 1.1//EN" "http://www.w3.org/Graphics/SVG/1.1/DTD/svg11.dtd">
<svg width="100%" height="100%" viewBox="0 0 32 32" version="1.1" xmlns="http://www.w3.org/2000/svg" xmlns:xlink="http://www.w3.org/1999/xlink" xml:space="preserve" xmlns:serif="http://www.serif.com/" style="fill-rule:evenodd;clip-rule:evenodd;stroke-linejoin:round;stroke-miterlimit:2;">
    <g transform="matrix(1,0,0,1,-319,0)">
        <g id="light-btn-sort" serif:id="light/btn-sort" transform="matrix(0.451519,0,0,0.451519,319,0.00261881)">
            <rect x="0" y="0" width="70.872" height="70.866" style="fill:none;"/>
            <g transform="matrix(1.12647,0,0,1.12647,32.2134,44.4247)">
                <path d="M0,-14.792L-4.089,-14.792C-4.873,-14.792 -5.509,-14.156 -5.509,-13.372L-5.509,18.118C-5.509,18.902 -6.145,19.538 -6.929,19.538L-12.089,19.538C-12.873,19.538 -13.509,18.902 -13.509,18.118L-13.509,-13.372C-13.509,-14.156 -14.145,-14.792 -14.929,-14.792L-19.018,-14.792C-20.112,-14.792 -20.795,-15.976 -20.248,-16.923L-10.739,-33.383C-10.192,-34.33 -8.826,-34.33 -8.279,-33.383L1.23,-16.923C1.777,-15.976 1.094,-14.792 0,-14.792" style="fill:rgb(102,102,110);fill-rule:nonzero;"/>
            </g>
            <g transform="matrix(1.12647,0,0,1.12647,61.7961,24.0282)">
                <path d="M0,19.055L-9.5,35.514C-10.047,36.461 -11.414,36.461 -11.961,35.515L-21.469,19.055C-22.016,18.108 -21.333,16.924 -20.239,16.924L-16.151,16.924C-15.366,16.924 -14.73,16.288 -14.73,15.504L-14.73,-15.985C-14.73,-16.77 -14.094,-17.406 -13.31,-17.406L-8.151,-17.406C-7.366,-17.406 -6.73,-16.77 -6.73,-15.985L-6.73,15.504C-6.73,16.288 -6.094,16.924 -5.31,16.924L-1.23,16.924C-0.137,16.924 0.547,18.108 0,19.055" style="fill:rgb(102,102,110);fill-rule:nonzero;"/>
            </g>
        </g>
    </g>
</svg>
