<?xml version="1.0" encoding="UTF-8" standalone="no"?>
<!DOCTYPE svg PUBLIC "-//W3C//DTD SVG 1.1//EN" "http://www.w3.org/Graphics/SVG/1.1/DTD/svg11.dtd">
<svg width="100%" height="100%" viewBox="0 0 16 16" version="1.1" xmlns="http://www.w3.org/2000/svg" xmlns:xlink="http://www.w3.org/1999/xlink" xml:space="preserve" xmlns:serif="http://www.serif.com/" style="fill-rule:evenodd;clip-rule:evenodd;stroke-linejoin:round;stroke-miterlimit:2;">
    <g transform="matrix(1,0,0,1,-88,-40)">
        <g id="light-rbn-browser" serif:id="light/rbn-browser" transform="matrix(0.225778,0,0,0.225778,88,40)">
            <rect x="0" y="0" width="70.872" height="70.866" style="fill:none;"/>
            <g transform="matrix(4.42913,0,0,4.42913,-389.764,-491.634)">
                <path d="M89.35,119.001C89.35,115.331 92.328,112.353 95.997,112.353C99.666,112.353 102.644,115.331 102.644,119.001C102.644,122.67 99.666,125.65 95.997,125.65C92.328,125.65 89.35,122.67 89.35,119.001ZM93.121,114.492C92.132,115.125 91.364,116.075 90.962,117.198C91.354,117.028 91.818,116.877 92.34,116.751C92.514,115.899 92.784,115.132 93.121,114.492ZM101.032,117.198C100.63,116.075 99.862,115.125 98.873,114.492C99.21,115.132 99.48,115.899 99.654,116.751C100.176,116.877 100.64,117.028 101.032,117.198ZM98.873,123.51C99.863,122.877 100.631,121.926 101.033,120.803C100.641,120.972 100.176,121.123 99.655,121.249C99.48,122.102 99.211,122.87 98.873,123.51ZM90.961,120.803C91.364,121.926 92.131,122.877 93.121,123.51C92.783,122.87 92.514,122.102 92.339,121.249C91.818,121.123 91.353,120.972 90.961,120.803ZM98.263,116.496C98.056,115.723 97.754,115.054 97.38,114.546C97.157,114.242 96.913,113.997 96.647,113.84L96.647,116.362C97.211,116.382 97.753,116.428 98.263,116.496ZM95.347,113.84C95.081,113.997 94.837,114.242 94.614,114.546C94.24,115.054 93.938,115.723 93.731,116.496C94.241,116.428 94.783,116.382 95.347,116.362L95.347,113.84ZM92.149,118.142C91.883,118.223 91.641,118.313 91.426,118.411C91.146,118.538 90.919,118.674 90.766,118.827C90.707,118.886 90.65,118.935 90.65,119.001C90.65,119.066 90.707,119.114 90.766,119.173C90.919,119.326 91.146,119.462 91.426,119.59C91.641,119.687 91.883,119.777 92.148,119.859C92.128,119.578 92.117,119.292 92.117,119.001C92.117,118.71 92.128,118.423 92.149,118.142ZM99.846,119.859C100.111,119.777 100.353,119.687 100.568,119.59C100.848,119.462 101.076,119.326 101.228,119.173C101.287,119.114 101.344,119.066 101.344,119.001C101.344,118.935 101.287,118.886 101.228,118.827C101.076,118.674 100.848,118.538 100.568,118.411C100.353,118.313 100.111,118.223 99.845,118.142C99.866,118.423 99.877,118.71 99.877,119.001C99.877,119.292 99.866,119.578 99.846,119.859ZM93.73,121.505C93.937,122.279 94.24,122.948 94.614,123.457C94.837,123.761 95.081,124.006 95.347,124.163L95.347,121.639C94.783,121.619 94.241,121.573 93.73,121.505ZM96.647,124.163C96.913,124.006 97.157,123.761 97.38,123.457C97.754,122.948 98.057,122.279 98.264,121.505C97.753,121.573 97.211,121.619 96.647,121.639L96.647,124.163ZM98.513,117.84C97.94,117.748 97.311,117.686 96.647,117.662L96.647,120.338C97.311,120.314 97.94,120.253 98.514,120.16C98.555,119.786 98.577,119.399 98.577,119.001C98.577,118.603 98.555,118.215 98.513,117.84ZM95.347,117.662C94.683,117.686 94.055,117.748 93.481,117.84C93.439,118.215 93.417,118.603 93.417,119.001C93.417,119.399 93.439,119.786 93.48,120.16C94.054,120.253 94.683,120.314 95.347,120.338L95.347,117.662Z" style="fill:rgb(102,102,110);"/>
            </g>
        </g>
    </g>
</svg>
