<?xml version="1.0" encoding="UTF-8" standalone="no"?>
<!DOCTYPE svg PUBLIC "-//W3C//DTD SVG 1.1//EN" "http://www.w3.org/Graphics/SVG/1.1/DTD/svg11.dtd">
<svg width="100%" height="100%" viewBox="0 0 32 32" version="1.1" xmlns="http://www.w3.org/2000/svg" xmlns:xlink="http://www.w3.org/1999/xlink" xml:space="preserve" xmlns:serif="http://www.serif.com/" style="fill-rule:evenodd;clip-rule:evenodd;stroke-linejoin:round;stroke-miterlimit:2;">
    <g transform="matrix(1,0,0,1,-284,0)">
        <g id="light-btn-filter" serif:id="light/btn-filter" transform="matrix(0.451519,0,0,0.451519,284,0)">
            <rect x="0" y="0" width="70.872" height="70.866" style="fill:none;"/>
            <g transform="matrix(1.13243,0,0,1.12647,-185.818,-363.709)">
                <path d="M175.404,335.936C174.046,334.261 173.768,331.951 174.691,329.999C175.613,328.048 177.57,326.804 179.719,326.804C188.959,326.804 201.785,326.804 211.029,326.804C213.179,326.804 215.137,328.049 216.058,330.001C216.98,331.954 216.701,334.266 215.341,335.94C210.537,341.854 204.726,349.009 202.216,352.1C201.404,353.099 200.961,354.349 200.961,355.639C200.961,358.578 200.961,364.303 200.961,369.655C200.961,371.843 199.693,373.83 197.715,374.742C195.737,375.654 193.412,375.324 191.763,373.897C191.741,373.878 191.719,373.859 191.697,373.84C190.468,372.777 189.761,371.228 189.761,369.598C189.761,365.865 189.761,359.015 189.761,355.637C189.761,354.348 189.319,353.1 188.509,352.101C186.004,349.01 180.2,341.852 175.404,335.936Z" style="fill:var(--outline);"/>
            </g>
        </g>
    </g>
</svg>
