<?xml version="1.0" encoding="UTF-8" standalone="no"?>
<!DOCTYPE svg PUBLIC "-//W3C//DTD SVG 1.1//EN" "http://www.w3.org/Graphics/SVG/1.1/DTD/svg11.dtd">
<svg width="100%" height="100%" viewBox="0 0 16 16" version="1.1" xmlns="http://www.w3.org/2000/svg" xmlns:xlink="http://www.w3.org/1999/xlink" xml:space="preserve" xmlns:serif="http://www.serif.com/" style="fill-rule:evenodd;clip-rule:evenodd;stroke-linecap:round;stroke-linejoin:round;stroke-miterlimit:7.5;">
    <g transform="matrix(1,0,0,1,-110,-40)">
        <g id="light-rbn-pavlovia" serif:id="light/rbn-pavlovia" transform="matrix(0.225778,0,0,0.225778,110,40)">
            <rect x="0" y="0" width="70.872" height="70.866" style="fill:none;"/>
            <g id="Pavlovia-Emblem--lines-" serif:id="Pavlovia Emblem (lines)" transform="matrix(0.878049,0,0,0.878049,14.5044,38.632)">
                <path d="M0,-6.924C2.105,-7.977 3.442,-5.993 2.753,-4.535C1.417,-1.498 5.264,-3.078 2.753,0.485C2.753,0.485 0.526,2.591 3.28,3.117C8.017,3.927 3.401,10.608 1.701,8.381C0.769,7.045 2.227,7.976 -0.162,4.291C-3.968,-1.62 -0.04,-1.782 -2.024,-4.414C-4.656,-8.098 -2.429,-13.767 2.47,-11.013C6.802,-8.625 6.154,-6.276 6.438,-4.819C6.033,-8.786 5.506,-12.188 -0.162,-14.819C-6.357,-17.856 3.401,-23.524 3.401,-29.031C3.401,-34.294 6.843,-36.157 14.333,-36.157C22.39,-35.995 23.322,-40.327 30.691,-38.505C36.359,-37.169 38.991,-33.242 41.865,-26.642C43.202,-23.484 43.445,-19.516 43.445,-15.993C43.445,-13.483 43.161,-12.835 47.25,-9.677C51.34,-6.519 43.04,0.85 44.619,4.129C43.809,2.146 45.955,0.323 45.793,-2.713C45.671,-5.993 43.809,-8.503 45.388,-11.135C47.898,-15.467 49.882,-16.925 42.756,-22.31C38.545,-25.468 36.157,-32.068 32.998,-30.61C29.962,-29.274 28.666,-29.031 19.03,-30.327C9.96,-31.501 6.276,-21.378 7.45,-17.937C8.098,-16.358 9.96,-16.479 10.365,-15.022C10.77,-12.916 8.138,-8.706 9.839,-7.369C10.77,-6.722 11.539,-7.248 13.402,-9.07C16.843,-12.349 18.665,-11.175 21.419,-11.175C26.277,-11.175 27.087,-3.685 22.593,-4.981C19.961,-5.79 20.204,-6.964 21.014,-6.964C22.593,-6.964 20.609,-3.523 17.734,-4.981C15.872,-6.033 16.398,-8.786 20.366,-8.948C25.103,-9.232 25.751,-7.774 25.629,-6.195C25.346,-3.28 22.876,3.036 15.102,-2.916C13.118,-4.373 11.944,-1.215 8.786,-1.741C7.855,-1.863 11.418,0.243 10.122,2.753C7.207,8.138 11.823,10.122 11.296,9.879C9.07,8.705 11.58,5.02 16.317,5.79C20.406,6.437 20.285,3.158 23.969,1.7C23.969,1.7 20.406,2.874 22.795,6.032C23.848,7.49 25.832,7.207 26.885,6.154C28.464,4.575 23.848,4.818 28.059,7.207C29.759,8.138 30.691,7.854 31.865,7.207C33.039,6.559 33.849,4.98 32.674,2.712C30.812,-1.256 30.407,-3.604 30.407,-6.924C30.407,-9.151 33.687,-9.029 35.428,-9.029C40.286,-9.029 40.043,-4.819 37.128,-4.535C34.78,-4.292 33.565,-6.762 34.901,-6.924C36.238,-7.086 35.306,-4.171 32.391,-4.697C31.055,-4.981 30.407,-5.871 30.407,-6.924C30.407,-7.572 30.407,-9.029 32.391,-10.204C33.565,-11.013 34.618,-11.256 36.602,-11.135C37.938,-11.135 39.517,-11.54 41.096,-10.082C42.675,-8.625 41.744,-7.855 42.797,-4.292C43.445,-1.903 42.27,1.903 39.112,2.024C36.359,2.146 34.78,0.971 34.78,0.971C40.853,6.113 32.796,8.219 33.606,6.113C33.727,5.709 34.415,5.587 34.78,6.64C35.428,8.34 38.586,9.15 41.906,7.976C45.59,6.518 49.153,9.15 46.765,11.255C43.728,13.887 47.412,15.345 48.465,15.871C54.012,18.624 48.344,26.155 45.833,25.224C43.445,24.414 47.291,22.309 45.955,26.682C44.619,30.893 38.707,32.229 33.727,29.314C26.885,25.508 37.695,25.224 29.395,29.961C23.605,33.403 17.167,31.014 16.884,28.261C16.762,26.56 20.568,28.139 15.021,30.123C9.231,32.229 5.952,24.333 8.057,22.228C10.284,20.001 10.041,24.981 6.478,20.365C3.563,16.681 4.494,4.696 14.131,11.417C22.431,17.207 32.027,11.822 29.921,10.77C28.464,9.96 26.763,13.401 36.642,14.211C40.732,14.495 43.485,13.806 46.238,11.701C46.36,11.579 46.522,11.417 46.643,11.296" style="fill:none;fill-rule:nonzero;stroke:var(--outline);stroke-width:2.52px;"/>
            </g>
        </g>
    </g>
</svg>
