<?xml version="1.0" encoding="UTF-8" standalone="no"?>
<!DOCTYPE svg PUBLIC "-//W3C//DTD SVG 1.1//EN" "http://www.w3.org/Graphics/SVG/1.1/DTD/svg11.dtd">
<svg width="100%" height="100%" viewBox="0 0 32 32" version="1.1" xmlns="http://www.w3.org/2000/svg" xmlns:xlink="http://www.w3.org/1999/xlink" xml:space="preserve" xmlns:serif="http://www.serif.com/" style="fill-rule:evenodd;clip-rule:evenodd;stroke-linejoin:round;stroke-miterlimit:2;">
    <g id="GratingComponent" transform="matrix(0.451519,0,0,0.451519,0,0)">
        <rect x="0" y="0" width="70.872" height="70.866" style="fill:none;"/>
        <clipPath id="_clip1">
            <rect x="0" y="0" width="70.872" height="70.866"/>
        </clipPath>
        <g clip-path="url(#_clip1)">
            <g transform="matrix(1.12913,0,0,1.12913,-364.854,-5.5115)">
                <path d="M373.803,4.658L367.273,4.658L325.523,67.866L332.021,67.866L335.092,63.219L335.122,63.238L373.803,4.658ZM385.935,5.928L345.041,67.866L342.141,67.866L339.642,66.218L380.293,4.658L385.935,4.658L385.935,5.928ZM385.935,25.598L358.024,67.866L351.535,67.866L385.935,15.771L385.935,25.598ZM385.935,45.244L370.997,67.866L364.503,67.866L385.935,35.419L385.935,45.244ZM323.091,61.725L323.091,51.911L354.293,4.658L360.783,4.658L323.091,61.725ZM323.091,42.073L323.091,32.254L341.313,4.658L347.793,4.658L323.091,42.073ZM323.091,22.426L323.091,12.595L328.332,4.658L334.823,4.658L323.091,22.426Z" style="fill:url(#_Radial2);fill-rule:nonzero;"/>
            </g>
        </g>
    </g>
    <defs>
        <radialGradient id="_Radial2" cx="0" cy="0" r="1" gradientUnits="userSpaceOnUse" gradientTransform="matrix(27.4605,0,0,27.4605,354.513,36.2647)"><stop offset="0" style="stop-color:rgb(102,102,110);stop-opacity:1"/><stop offset="0.75" style="stop-color:rgb(102,102,110);stop-opacity:1"/><stop offset="1" style="stop-color:rgb(102,102,110);stop-opacity:0"/></radialGradient>
    </defs>
</svg>
