<?xml version="1.0" encoding="UTF-8" standalone="no"?>
<!DOCTYPE svg PUBLIC "-//W3C//DTD SVG 1.1//EN" "http://www.w3.org/Graphics/SVG/1.1/DTD/svg11.dtd">
<svg width="100%" height="100%" viewBox="0 0 16 16" version="1.1" xmlns="http://www.w3.org/2000/svg" xmlns:xlink="http://www.w3.org/1999/xlink" xml:space="preserve" xmlns:serif="http://www.serif.com/" style="fill-rule:evenodd;clip-rule:evenodd;stroke-linecap:round;stroke-linejoin:round;stroke-miterlimit:1.5;">
    <g transform="matrix(1,0,0,1,-260,0)">
        <g id="html" transform="matrix(0.225759,0,0,0.225778,260,0)">
            <rect x="0" y="0" width="70.872" height="70.866" style="fill:none;"/>
            <clipPath id="_clip1">
                <rect x="0" y="0" width="70.872" height="70.866"/>
            </clipPath>
            <g clip-path="url(#_clip1)">
                <g id="globe">
                    <g transform="matrix(4.42949,0,0,4.42913,-1151.67,-88.5826)">
                        <path d="M268,21L268,35" style="fill:none;stroke:var(--outline);stroke-width:1px;"/>
                    </g>
                    <g transform="matrix(2.71228e-16,4.42913,-4.42949,2.71206e-16,159.462,-1151.57)">
                        <path d="M268,21L268,35" style="fill:none;stroke:var(--outline);stroke-width:1px;"/>
                    </g>
                    <g transform="matrix(2.21475,0,0,4.42913,-558.116,-88.5826)">
                        <path d="M268,20C272.415,20 276,23.585 276,28C276,32.415 272.415,36 268,36C263.585,36 260,32.415 260,28C260,23.585 263.585,20 268,20ZM268,21C266.815,21 265.817,21.456 264.929,22.108C263.118,23.435 262,25.585 262,28C262,30.415 263.118,32.565 264.929,33.892C265.817,34.544 266.815,35 268,35C269.185,35 270.183,34.544 271.071,33.892C272.882,32.565 274,30.415 274,28C274,25.585 272.882,23.435 271.071,22.108C270.183,21.456 269.185,21 268,21Z" style="fill:var(--outline);"/>
                    </g>
                    <g transform="matrix(1.35614e-16,2.21457,-4.42949,2.71206e-16,159.462,-558.071)">
                        <path d="M268,20C272.415,20 276,23.585 276,28C276,32.415 272.415,36 268,36C263.585,36 260,32.415 260,28C260,23.585 263.585,20 268,20ZM268,21C266.815,21 265.817,21.456 264.929,22.108C263.118,23.435 262,25.585 262,28C262,30.415 263.118,32.565 264.929,33.892C265.817,34.544 266.815,35 268,35C269.185,35 270.183,34.544 271.071,33.892C272.882,32.565 274,30.415 274,28C274,25.585 272.882,23.435 271.071,22.108C270.183,21.456 269.185,21 268,21Z" style="fill:var(--outline);"/>
                    </g>
                    <g transform="matrix(4.42949,0,0,4.42913,-1151.67,-88.5826)">
                        <path d="M268,20C272.415,20 276,23.585 276,28C276,32.415 272.415,36 268,36C263.585,36 260,32.415 260,28C260,23.585 263.585,20 268,20ZM268,22C264.689,22 262,24.689 262,28C262,31.311 264.689,34 268,34C271.311,34 274,31.311 274,28C274,24.689 271.311,22 268,22Z" style="fill:var(--outline);"/>
                    </g>
                </g>
            </g>
        </g>
    </g>
</svg>
