<?xml version="1.0" encoding="UTF-8" standalone="no"?>
<!DOCTYPE svg PUBLIC "-//W3C//DTD SVG 1.1//EN" "http://www.w3.org/Graphics/SVG/1.1/DTD/svg11.dtd">
<svg width="100%" height="100%" viewBox="0 0 16 16" version="1.1" xmlns="http://www.w3.org/2000/svg" xmlns:xlink="http://www.w3.org/1999/xlink" xml:space="preserve" xmlns:serif="http://www.serif.com/" style="fill-rule:evenodd;clip-rule:evenodd;stroke-linecap:round;stroke-linejoin:round;stroke-miterlimit:1.5;">
    <g transform="matrix(1,0,0,1,-180,-19)">
        <g id="psyrun" transform="matrix(0.225759,0,0,0.225778,180,19)">
            <rect x="0" y="0" width="70.872" height="70.866" style="fill:none;"/>
            <clipPath id="_clip1">
                <rect x="0" y="0" width="70.872" height="70.866"/>
            </clipPath>
            <g clip-path="url(#_clip1)">
                <g transform="matrix(0.152845,0,0,0.152833,-67.4046,-38.4057)">
                    <path d="M462.032,468.788C494.83,420.123 524.235,395.747 544,422.234C576.096,465.244 484,506.234 508,530.234C556,578.234 616,350.234 676,386.234C722.018,413.844 508,590.234 556,626.234C604,662.234 700,398.234 748,434.234C796,470.234 592,626.234 652,650.234C712,674.234 748.285,475.049 790.711,517.475C833.137,559.902 723.153,585.033 756.932,618.812C776.72,638.6 803.313,595.809 829.12,555.001" style="fill:none;stroke:var(--outline);stroke-width:19.59px;"/>
                </g>
                <g transform="matrix(7.85628,0,0,7.85563,-1413.85,-129.453)">
                    <path d="M183.911,17.677C186.07,17.677 187.823,19.43 187.823,21.589C187.823,23.747 186.07,25.5 183.911,25.5C181.753,25.5 180,23.747 180,21.589C180,19.43 181.753,17.677 183.911,17.677ZM183.911,18.382C182.142,18.382 180.705,19.819 180.705,21.589C180.705,23.358 182.142,24.795 183.911,24.795C185.681,24.795 187.118,23.358 187.118,21.589C187.118,19.819 185.681,18.382 183.911,18.382Z" style="fill:var(--outline);"/>
                </g>
                <g transform="matrix(7.85628,0,0,7.85563,-1404.72,-138.864)">
                    <path d="M180.304,20.075C180.896,18.667 182.289,17.677 183.911,17.677C186.07,17.677 187.823,19.43 187.823,21.589C187.823,23.211 186.833,24.604 185.425,25.196C185.869,24.59 186.131,23.842 186.131,23.033C186.131,21.011 184.489,19.369 182.467,19.369C181.658,19.369 180.91,19.631 180.304,20.075ZM182.592,18.665C184.904,18.731 186.769,20.596 186.835,22.908C187.017,22.506 187.118,22.059 187.118,21.589C187.118,19.819 185.681,18.382 183.911,18.382C183.441,18.382 182.994,18.483 182.592,18.665Z" style="fill:var(--outline);"/>
                </g>
            </g>
        </g>
    </g>
</svg>
