<?xml version="1.0" encoding="UTF-8" standalone="no"?>
<!DOCTYPE svg PUBLIC "-//W3C//DTD SVG 1.1//EN" "http://www.w3.org/Graphics/SVG/1.1/DTD/svg11.dtd">
<svg width="100%" height="100%" viewBox="0 0 16 16" version="1.1" xmlns="http://www.w3.org/2000/svg" xmlns:xlink="http://www.w3.org/1999/xlink" xml:space="preserve" xmlns:serif="http://www.serif.com/" style="fill-rule:evenodd;clip-rule:evenodd;stroke-linejoin:round;stroke-miterlimit:2;">
    <g transform="matrix(1,0,0,1,-20,0)">
        <g id="text" transform="matrix(0.225759,0,0,0.225778,20,0)">
            <rect x="0" y="0" width="70.872" height="70.866" style="fill:none;"/>
            <clipPath id="_clip1">
                <rect x="0" y="0" width="70.872" height="70.866"/>
            </clipPath>
            <g clip-path="url(#_clip1)">
                <g transform="matrix(4.42949,0,0,4.42913,-88.5899,-2.12269e-09)">
                    <path d="M31.003,3C31.268,3 31.521,3.105 31.708,3.292C31.895,3.479 32,3.732 32,3.997L32,4.003C32,4.268 31.895,4.521 31.708,4.708C31.521,4.895 31.268,5 31.003,5L24.997,5C24.732,5 24.479,4.895 24.292,4.708C24.105,4.521 24,4.268 24,4.003L24,3.997C24,3.732 24.105,3.479 24.292,3.292C24.479,3.105 24.732,3 24.997,3L31.003,3ZM30.984,6.5C31.249,6.5 31.502,6.605 31.689,6.792C31.876,6.979 31.981,7.232 31.981,7.497L31.981,7.503C31.981,7.768 31.876,8.021 31.689,8.208C31.502,8.395 31.249,8.5 30.984,8.5L24.977,8.5C24.713,8.5 24.46,8.395 24.273,8.208C24.086,8.021 23.981,7.768 23.981,7.503L23.981,7.497C23.981,7.232 24.086,6.979 24.273,6.792C24.46,6.605 24.713,6.5 24.977,6.5L30.984,6.5ZM30.984,10C31.249,10 31.502,10.105 31.689,10.292C31.876,10.479 31.981,10.732 31.981,10.997L31.981,11.003C31.981,11.268 31.876,11.521 31.689,11.708C31.502,11.895 31.249,12 30.984,12L24.977,12C24.713,12 24.46,11.895 24.273,11.708C24.086,11.521 23.981,11.268 23.981,11.003L23.981,10.997C23.981,10.732 24.086,10.479 24.273,10.292C24.46,10.105 24.713,10 24.977,10L30.984,10Z" style="fill:var(--outline);fill-opacity:0.5;"/>
                </g>
                <g id="page" transform="matrix(1.28461,0,0,1.2845,58.0888,34.9665)">
                    <path d="M0,0.59L-10.99,0.59C-16.95,0.59 -21.8,5.43 -21.8,11.39L-21.84,21.61L-29.95,21.61C-32.79,21.61 -35.1,19.3 -35.1,16.46L-35.1,-17.09C-35.1,-19.92 -32.79,-22.23 -29.95,-22.23L-5.14,-22.23C-2.31,-22.23 0,-19.92 0,-17.09L0,0.59ZM5.52,6.39L5.52,-16.48C5.52,-22.44 0.67,-27.29 -5.29,-27.29L-30.1,-27.29C-36.06,-27.29 -40.92,-22.44 -40.92,-16.48L-40.92,17.07C-40.92,23.03 -36.06,27.88 -30.1,27.88L-15.97,27.88L5.52,6.39Z" style="fill:var(--outline);fill-rule:nonzero;"/>
                </g>
            </g>
        </g>
    </g>
</svg>
