<?xml version="1.0" encoding="UTF-8" standalone="no"?>
<!DOCTYPE svg PUBLIC "-//W3C//DTD SVG 1.1//EN" "http://www.w3.org/Graphics/SVG/1.1/DTD/svg11.dtd">
<svg width="100%" height="100%" viewBox="0 0 16 16" version="1.1" xmlns="http://www.w3.org/2000/svg" xmlns:xlink="http://www.w3.org/1999/xlink" xml:space="preserve" xmlns:serif="http://www.serif.com/" style="fill-rule:evenodd;clip-rule:evenodd;stroke-linejoin:round;stroke-miterlimit:2;">
    <g id="unknown" transform="matrix(0.225759,0,0,0.225778,0,0)">
        <rect x="0" y="0" width="70.872" height="70.866" style="fill:none;"/>
        <clipPath id="_clip1">
            <rect x="0" y="0" width="70.872" height="70.866"/>
        </clipPath>
        <g clip-path="url(#_clip1)">
            <g id="page" transform="matrix(1.28461,0,0,1.2845,58.0888,34.9665)">
                <path d="M0,0.59L-10.99,0.59C-16.95,0.59 -21.8,5.43 -21.8,11.39L-21.84,21.61L-29.95,21.61C-32.79,21.61 -35.1,19.3 -35.1,16.46L-35.1,-17.09C-35.1,-19.92 -32.79,-22.23 -29.95,-22.23L-5.14,-22.23C-2.31,-22.23 0,-19.92 0,-17.09L0,0.59ZM5.52,6.39L5.52,-16.48C5.52,-22.44 0.67,-27.29 -5.29,-27.29L-30.1,-27.29C-36.06,-27.29 -40.92,-22.44 -40.92,-16.48L-40.92,17.07C-40.92,23.03 -36.06,27.88 -30.1,27.88L-15.97,27.88L5.52,6.39Z" style="fill:var(--outline);fill-rule:nonzero;"/>
            </g>
        </g>
    </g>
</svg>
